<?xml version="1.0" standalone="no"?>
<!DOCTYPE svg PUBLIC "-//W3C//DTD SVG 20010904//EN"
 "http://www.w3.org/TR/2001/REC-SVG-20010904/DTD/svg10.dtd">
<svg version="1.0" xmlns="http://www.w3.org/2000/svg"
 width="264.000000pt" height="175.000000pt" viewBox="0 0 264.000000 175.000000"
 preserveAspectRatio="xMidYMid meet">

<g transform="translate(0.000000,175.000000) scale(0.100000,-0.100000)"
fill="#000000" stroke="none">
<path d="M1300 1360 l0 -340 25 0 25 0 0 326 c0 269 -2 328 -14 340 -34 34
-36 18 -36 -326z"/>
<path d="M930 1273 c0 -37 99 -335 116 -349 10 -8 7 -14 -17 -28 -17 -10 -59
-45 -94 -77 -46 -44 -64 -55 -68 -44 -4 8 -74 106 -158 217 -200 268 -219 288
-219 231 0 -38 334 -483 359 -478 14 2 8 -12 -25 -62 -24 -37 -53 -90 -65
-118 l-22 -53 -21 24 c-26 29 -277 184 -288 178 -4 -3 -8 -16 -8 -29 0 -20 22
-38 137 -107 75 -46 145 -82 155 -82 14 1 17 -3 13 -15 -4 -9 -16 -52 -27 -96
-22 -88 -25 -95 -37 -77 -9 15 -469 124 -489 117 -21 -8 -14 -45 11 -54 12 -5
126 -32 254 -61 250 -58 243 -54 243 -122 l0 -28 -320 0 -320 0 0 -24 c0 -14
4 -27 8 -30 4 -2 582 -8 1285 -12 1169 -6 1277 -5 1283 9 3 9 -1 23 -9 32 -12
12 -43 15 -149 15 -73 0 -211 3 -305 7 l-173 6 -5 36 c-32 207 -71 328 -144
447 -51 83 -142 183 -212 234 -23 16 -35 30 -26 30 11 0 31 46 71 168 31 92
56 173 56 180 0 18 -28 45 -39 38 -15 -9 -124 -345 -118 -365 4 -17 3 -17 -32
-1 -137 66 -284 68 -433 5 -14 -5 -18 -2 -18 12 0 32 -98 315 -116 334 -24 26
-34 24 -34 -8z m484 -373 c110 -28 190 -73 272 -155 134 -133 202 -290 229
-527 l6 -58 -597 0 -597 0 6 78 c22 275 180 531 387 625 48 22 162 55 196 56
11 1 56 -8 98 -19z"/>
<path d="M1950 1023 c-129 -172 -170 -233 -168 -252 7 -58 36 -31 208 198 93
126 170 233 170 240 0 13 -24 41 -34 41 -3 0 -83 -102 -176 -227z"/>
<path d="M2060 636 c-123 -76 -135 -85 -135 -112 0 -20 5 -29 16 -29 24 0 289
164 289 179 0 7 -8 20 -18 29 -16 15 -27 10 -152 -67z"/>
<path d="M2212 376 c-230 -53 -255 -64 -229 -100 11 -16 30 -13 252 39 131 30
244 60 249 65 11 11 -20 51 -38 49 -6 0 -112 -24 -234 -53z"/>
</g>
</svg>
