<?xml version="1.0" standalone="no"?>
<!DOCTYPE svg PUBLIC "-//W3C//DTD SVG 20010904//EN"
 "http://www.w3.org/TR/2001/REC-SVG-20010904/DTD/svg10.dtd">
<svg version="1.0" xmlns="http://www.w3.org/2000/svg"
 width="35px" height="23px" viewBox="0 0 264.000000 175.000000"
 preserveAspectRatio="xMidYMid meet">

<g transform="translate(0.000000,175.000000) scale(0.100000,-0.100000)"
fill="#EC6E4C" stroke="none">
<path d="M1302 1358 c3 -335 3 -343 23 -343 20 0 20 8 23 328 2 275 0 330 -12
343 -35 34 -36 20 -34 -328z"/>
<path d="M930 1273 c0 -16 25 -104 56 -197 l57 -169 -29 -21 c-16 -11 -54 -44
-85 -74 -43 -40 -58 -49 -62 -38 -4 9 -74 107 -158 218 -200 268 -219 288
-219 231 0 -38 334 -483 359 -478 14 2 8 -11 -23 -59 -23 -34 -52 -86 -65
-114 l-25 -52 -22 21 c-32 30 -277 178 -286 173 -4 -3 -8 -16 -8 -29 0 -20 22
-38 137 -107 75 -46 145 -82 155 -82 14 1 17 -3 13 -15 -4 -9 -16 -52 -27 -96
-22 -88 -25 -95 -37 -77 -9 15 -469 124 -489 117 -21 -8 -14 -45 11 -54 12 -5
127 -32 255 -62 l232 -53 0 -48 0 -48 -317 -2 c-273 -3 -318 -5 -320 -18 -8
-42 -48 -41 1295 -47 1180 -6 1282 -5 1288 10 16 42 -8 46 -329 53 l-306 7 -6
46 c-19 139 -56 274 -103 366 -57 114 -159 236 -251 303 -24 18 -37 32 -28 32
11 0 31 46 71 168 31 92 56 173 56 180 0 18 -28 45 -39 38 -15 -9 -124 -345
-118 -365 4 -16 0 -16 -42 4 -72 35 -119 45 -212 45 -79 0 -124 -10 -211 -45
-14 -5 -18 -2 -18 12 0 32 -98 315 -116 334 -24 26 -34 24 -34 -8z m329 -445
c15 -41 -2 -62 -65 -79 -33 -8 -74 -23 -92 -33 -51 -26 -109 -92 -143 -161
-17 -35 -37 -66 -45 -69 -16 -6 -44 19 -44 40 0 52 87 194 150 244 53 42 144
79 193 80 30 0 39 -5 46 -22z"/>
<path d="M1950 1023 c-129 -172 -170 -233 -168 -252 7 -58 36 -31 208 198 93
126 170 233 170 240 0 13 -24 41 -34 41 -3 0 -83 -102 -176 -227z"/>
<path d="M2065 640 c-71 -44 -135 -86 -143 -94 -19 -19 -7 -57 18 -53 30 5
290 167 290 181 0 7 -8 20 -18 29 -16 15 -27 10 -147 -63z"/>
<path d="M2225 379 c-115 -27 -220 -51 -232 -54 -17 -4 -21 -10 -17 -32 3 -15
7 -29 9 -31 6 -7 488 107 499 118 11 11 -20 50 -38 49 -6 0 -105 -23 -221 -50z"/>
</g>
</svg>
