<?xml version="1.0" standalone="no"?>
<!DOCTYPE svg PUBLIC "-//W3C//DTD SVG 20010904//EN"
 "http://www.w3.org/TR/2001/REC-SVG-20010904/DTD/svg10.dtd">
<svg version="1.0" xmlns="http://www.w3.org/2000/svg"
 width="264.000000pt" height="175.000000pt" viewBox="0 0 264.000000 175.000000"
 preserveAspectRatio="xMidYMid meet">

<g transform="translate(0.000000,175.000000) scale(0.100000,-0.100000)"
fill="#000000" stroke="none">
<path d="M1160 958 c-36 -13 -87 -36 -115 -52 -70 -41 -184 -160 -235 -244
-81 -138 -139 -328 -133 -440 l4 -62 -321 0 -320 0 0 -24 c0 -14 4 -27 8 -30
4 -2 582 -8 1285 -12 1169 -6 1277 -5 1283 9 3 9 -1 23 -9 32 -12 12 -43 15
-149 15 -73 0 -211 3 -305 7 l-173 6 -5 36 c-3 20 -13 74 -21 120 -54 291
-230 531 -464 631 -83 35 -241 39 -330 8z m254 -58 c110 -28 190 -73 272 -155
134 -133 202 -290 229 -527 l6 -58 -597 0 -597 0 6 78 c22 275 180 531 387
625 48 22 162 55 196 56 11 1 56 -8 98 -19z"/>
</g>
</svg>
